<?xml version="1.0" standalone="no"?>
<!DOCTYPE svg PUBLIC "-//W3C//DTD SVG 20010904//EN"
 "http://www.w3.org/TR/2001/REC-SVG-20010904/DTD/svg10.dtd">
<svg version="1.0" xmlns="http://www.w3.org/2000/svg"
 width="700.000000pt" height="700.000000pt" viewBox="0 0 700.000000 700.000000"
 preserveAspectRatio="xMidYMid meet">
<metadata>
Created by potrace 1.11, written by Peter Selinger 2001-2013
</metadata>
<g transform="translate(0.000000,700.000000) scale(0.100000,-0.100000)"
fill="#000000" stroke="none">
<path d="M3347 6985 c-1 -2 -49 -5 -107 -9 -108 -7 -126 -9 -245 -27 -38 -6
-83 -13 -100 -15 -127 -19 -366 -81 -537 -140 -292 -102 -578 -247 -831 -422
-94 -64 -251 -183 -267 -201 -3 -3 -23 -21 -45 -40 -63 -52 -254 -241 -318
-314 -246 -280 -458 -610 -589 -917 -22 -52 -46 -108 -54 -125 -17 -37 -111
-323 -117 -356 -3 -13 -10 -44 -17 -69 -7 -25 -14 -53 -16 -63 -2 -10 -5 -26
-8 -35 -3 -9 -8 -30 -11 -47 -22 -120 -35 -199 -40 -241 -4 -27 -8 -59 -10
-72 -9 -57 -19 -262 -19 -407 0 -197 8 -312 35 -490 14 -92 16 -103 24 -150 4
-22 9 -47 10 -55 9 -52 72 -282 102 -374 65 -200 180 -462 270 -614 24 -40 43
-75 43 -78 0 -8 194 -298 210 -314 3 -3 32 -39 65 -80 112 -140 258 -295 410
-435 100 -92 357 -284 465 -349 25 -15 54 -32 65 -39 72 -44 113 -67 225 -123
70 -34 156 -74 191 -89 35 -14 78 -32 94 -40 65 -29 341 -117 438 -140 85 -20
261 -54 302 -60 28 -3 59 -8 70 -11 139 -31 646 -37 850 -9 17 2 48 6 70 9 40
5 144 21 200 32 17 3 59 12 95 20 36 9 72 17 80 19 278 59 665 220 973 403
121 72 376 256 462 332 108 97 206 193 336 330 36 38 151 181 217 271 136 184
297 467 387 679 15 36 33 79 40 95 8 17 34 91 59 165 93 276 148 544 172 845
17 199 5 585 -21 735 -3 14 -7 43 -10 65 -64 462 -275 1000 -553 1410 -293
430 -651 770 -1107 1050 -21 13 -103 57 -217 118 -268 143 -701 284 -1023 331
-209 31 -299 38 -518 40 -97 2 -178 2 -180 1z m361 -279 c123 -7 211 -18 342
-40 123 -22 137 -24 225 -47 44 -12 89 -23 99 -25 11 -2 56 -16 100 -30 500
-166 919 -420 1280 -778 137 -135 172 -174 271 -301 264 -338 447 -696 564
-1102 38 -131 72 -285 86 -383 3 -25 8 -56 10 -70 2 -14 7 -54 10 -90 3 -36 8
-83 11 -105 3 -21 6 -123 6 -225 0 -165 -3 -229 -17 -350 -3 -19 -7 -57 -9
-85 -7 -64 -42 -247 -67 -350 -97 -388 -273 -767 -508 -1095 -41 -58 -77 -107
-81 -110 -3 -3 -33 -39 -67 -80 -126 -155 -333 -354 -513 -492 -87 -67 -294
-208 -306 -208 -3 0 -18 -9 -33 -19 -68 -49 -349 -180 -526 -246 -165 -62
-491 -142 -650 -160 -33 -4 -71 -8 -84 -11 -135 -21 -624 -20 -701 1 -8 2 -40
6 -70 10 -30 3 -62 7 -70 9 -8 3 -37 7 -64 11 -27 3 -52 8 -55 10 -3 1 -22 6
-41 9 -75 12 -240 56 -356 95 -732 243 -1342 732 -1754 1406 -41 66 -190 357
-190 369 0 4 -9 25 -19 49 -72 160 -149 420 -196 662 -10 54 -33 238 -40 325
-9 97 -9 417 -1 476 3 21 8 73 11 114 4 41 8 82 10 90 3 8 7 34 10 57 10 82
64 320 100 437 204 670 636 1271 1210 1682 267 191 618 365 925 458 91 27 312
81 370 90 19 3 67 10 105 16 110 16 133 19 260 26 66 3 121 7 122 8 4 3 182
-2 291 -8z"/>
<path d="M2065 5989 c-553 -319 -985 -814 -1228 -1409 -44 -109 -112 -317
-133 -412 -2 -10 -6 -28 -9 -40 -15 -65 -45 -252 -51 -313 -3 -38 -8 -78 -10
-90 -5 -25 -5 -409 1 -450 2 -16 6 -55 9 -85 14 -133 41 -283 72 -405 22 -88
100 -317 129 -380 14 -31 25 -58 25 -61 0 -8 111 -227 142 -282 34 -58 82 -90
134 -88 70 3 118 47 129 121 5 33 1 50 -23 95 -88 164 -118 227 -167 350 -48
119 -114 333 -129 416 -2 16 -9 54 -15 84 -11 55 -15 84 -29 195 -9 80 -9 452
1 540 95 832 566 1558 1277 1972 132 76 164 132 124 215 -22 46 -60 71 -113
75 -41 4 -57 -2 -136 -48z"/>
<path d="M1985 5159 c-38 -10 -165 -140 -268 -271 -255 -327 -415 -722 -464
-1143 -15 -124 -6 -544 11 -574 2 -3 6 -29 10 -58 29 -250 237 -762 328 -809
65 -34 145 -15 183 42 36 56 26 105 -54 247 -80 143 -174 435 -196 612 -4 28
-9 61 -11 75 -17 83 -9 414 11 519 3 14 8 42 11 61 9 56 43 189 69 266 94 285
240 525 464 764 74 79 89 111 77 174 -6 31 -61 95 -84 97 -4 0 -18 2 -32 3
-14 2 -39 -1 -55 -5z"/>
<path d="M5745 5160 c-45 -10 -71 -30 -93 -69 -29 -56 -21 -90 51 -209 82
-134 132 -230 185 -354 44 -101 114 -305 133 -386 6 -26 13 -56 16 -67 9 -36
42 -238 52 -315 9 -76 8 -504 -2 -550 -3 -14 -11 -61 -17 -105 -89 -613 -423
-1202 -910 -1605 -108 -89 -197 -153 -340 -240 -73 -45 -102 -70 -114 -94 -45
-95 19 -196 124 -196 28 0 162 64 168 81 2 5 8 9 14 9 6 0 54 30 107 67 290
200 549 458 743 738 235 340 405 756 468 1145 7 41 14 83 16 93 2 10 6 48 10
85 3 37 8 81 10 97 5 44 5 382 0 435 -46 473 -171 869 -394 1245 -103 174
-148 212 -227 195z"/>
<path d="M5211 4800 c-92 -42 -102 -124 -28 -242 57 -92 157 -287 157 -309 0
-8 4 -19 9 -25 19 -20 85 -251 110 -384 26 -138 34 -419 17 -555 -4 -33 -9
-71 -11 -85 -39 -295 -206 -684 -392 -915 -64 -79 -115 -136 -199 -220 -94
-95 -111 -127 -98 -183 19 -81 106 -128 179 -98 68 29 288 262 401 426 167
241 296 539 353 815 39 191 46 262 46 475 0 166 -6 270 -20 340 -3 13 -7 42
-11 65 -7 50 -56 241 -83 320 -45 138 -109 276 -198 426 -62 105 -109 158
-141 160 -9 0 -24 2 -33 4 -9 1 -35 -5 -58 -15z"/>
<path d="M2323 4641 c-69 -42 -208 -231 -291 -396 -126 -250 -183 -499 -176
-775 4 -163 9 -207 35 -319 55 -238 172 -502 239 -536 67 -35 148 -15 183 45
30 50 24 96 -26 195 -113 224 -156 393 -161 630 -3 123 13 242 49 385 43 168
168 398 289 535 38 42 56 80 58 119 1 38 -29 94 -63 114 -35 22 -102 23 -136
3z"/>
<path d="M4712 4466 c-44 -12 -84 -66 -88 -116 -3 -40 3 -53 74 -177 108 -187
171 -416 176 -639 5 -220 -37 -415 -138 -637 -20 -43 -36 -92 -36 -108 0 -110
139 -173 223 -101 62 54 157 308 202 542 20 102 26 327 12 454 -22 205 -97
436 -200 621 -87 155 -134 189 -225 161z"/>
<path d="M3407 4444 c-1 -1 -22 -5 -47 -9 -203 -28 -401 -133 -547 -289 -231
-247 -312 -578 -222 -906 25 -89 84 -212 144 -295 48 -67 158 -176 228 -223
284 -196 652 -221 962 -64 273 137 463 398 511 702 9 57 10 199 2 265 -22 181
-113 372 -244 513 -152 164 -338 264 -554 298 -40 6 -228 12 -233 8z m263
-294 c301 -82 502 -343 502 -651 -1 -331 -242 -612 -568 -664 -78 -12 -201 -7
-264 10 -3 1 -18 5 -35 10 -223 62 -414 270 -465 507 -13 64 -14 220 -1 266 5
18 10 36 11 40 7 51 64 174 108 232 112 151 308 261 482 269 30 2 56 4 57 5 7
7 116 -8 173 -24z"/>
<path d="M3442 3620 c-33 -15 -47 -29 -62 -63 -22 -49 -19 -85 11 -133 17 -28
35 -40 91 -57 23 -8 87 11 109 32 27 25 47 81 42 120 -12 93 -102 141 -191
101z"/>
<path d="M1834 2177 c-118 -108 14 -294 155 -219 125 67 71 252 -73 252 -38 0
-52 -6 -82 -33z"/>
</g>
</svg>
