<svg xmlns="http://www.w3.org/2000/svg" xmlns:xlink="http://www.w3.org/1999/xlink" version="1.1" width="514" height="514" style=""><rect id="backgroundrect" width="100%" height="100%" x="0" y="0" fill="none" stroke="none"/>
  <!-- Exported by Scratch - http://scratch.mit.edu/ -->
  
  
  
  
  
  
  
  
  
  
  
<g class="currentLayer" style=""><title>Layer 1</title><path id="ID0.5110253398306668" fill="#FFFFFF" stroke="none" d="M256.0258026599884,16.021889209747314 C322.24036391818527,16.021889209747314 382.2403630539179,42.91516071176529 425.6858923820257,86.3617960306406 C469.13252770090105,129.80732535874844 496.025799202919,189.8073244944811 496.025799202919,256.0218857526779 C496.025799202919,322.23644701087477 469.13252770090105,382.2364461466074 425.6858923820257,425.6819754747152 C382.2403630539179,469.12861079359055 322.24036391818527,496.0218822956085 256.0258026599884,496.0218822956085 C189.8112414017916,496.0218822956085 129.81124226605894,469.12861079359055 86.36571293795109,425.6819754747152 C42.91907761907577,382.2364461466074 16.0258061170578,322.23644701087477 16.0258061170578,256.0218857526779 C16.0258061170578,189.8073244944811 42.91907761907577,129.80732535874844 86.36571293795109,86.3617960306406 C129.81124226605894,42.91516071176529 189.8112414017916,16.021889209747314 256.0258026599884,16.021889209747314 z" class="" opacity="0"/><g id="ID0.6499583958648145" class="" opacity="0">
    <g id="ID0.22794769098982215" opacity="0">
      <path id="ID0.1612658859230578" d="M 256 0 C 114.841 0 0 114.841 0 255.999 C 0 397.158 114.841 512 256 512 C 397.159 512 512 397.158 512 255.999 C 512 114.841 397.159 0 256 0 Z M 256 492 C 125.870 492 20 386.131 20 255.999 C 20 125.869 125.870 20 256 20 C 386.130 20 492 125.869 492 255.999 C 492 386.131 386.131 492 256 492 Z " opacity="0"/>
    </g>
  </g><g id="ID0.05029568215832114" class="" opacity="1">
    <g id="ID0.5596473133191466" opacity="1">
      <path id="ID0.9795328946784139" fill="#FF0000" d="M 394.097 163.885 C 391.033 159.290 384.825 158.049 380.228 161.114 C 375.634 164.178 374.393 170.387 377.458 174.982 C 393.514 199.053 402 227.067 402 256 C 402 297.766 384.068 337.603 352.802 365.295 C 348.668 368.957 348.284 375.277 351.947 379.412 C 353.923 381.642 356.673 382.781 359.437 382.781 C 361.794 382.781 364.160 381.953 366.063 380.267 C 401.612 348.780 422 303.487 422 256 C 422 223.105 412.352 191.251 394.097 163.885 Z " opacity="1"/>
    </g>
  </g><g id="ID0.9531189389526844" class="" opacity="0">
    <g id="ID0.2253865860402584" opacity="0">
      <path id="ID0.7975027202628553" fill="#FF0000" d="M 376.928 252.073 C 376.911 251.544 376.885 251.016 376.861 250.488 C 376.828 249.771 376.789 249.054 376.743 248.338 C 376.698 247.616 376.650 246.894 376.592 246.173 C 376.571 245.912 376.543 245.652 376.520 245.392 C 375.473 233.398 372.652 221.697 368.158 210.609 C 368.101 210.467 368.043 210.325 367.985 210.184 C 367.614 209.279 367.237 208.376 366.843 207.479 C 366.711 207.176 366.571 206.877 366.436 206.576 C 363.688 200.447 360.436 194.516 356.661 188.857 C 353.597 184.262 347.388 183.022 342.793 186.087 C 338.199 189.153 336.958 195.362 340.023 199.955 C 342.766 204.067 345.186 208.347 347.281 212.760 C 347.295 212.788 347.304 212.818 347.318 212.848 C 347.633 213.514 347.934 214.186 348.234 214.859 C 348.326 215.065 348.422 215.270 348.512 215.477 C 348.847 216.244 349.172 217.016 349.489 217.791 C 349.528 217.888 349.568 217.984 349.607 218.081 C 353.347 227.339 355.712 237.190 356.599 247.144 C 356.618 247.362 356.642 247.580 356.659 247.799 C 356.709 248.401 356.747 249.004 356.786 249.606 C 356.824 250.203 356.858 250.801 356.885 251.400 C 356.905 251.840 356.926 252.281 356.941 252.721 C 356.976 253.812 357.001 254.905 357.001 256.000 C 357.001 272.462 352.918 288.849 345.195 303.387 C 342.604 308.264 344.457 314.319 349.334 316.910 C 350.830 317.705 352.435 318.081 354.017 318.081 C 357.597 318.081 361.060 316.152 362.857 312.770 C 372.109 295.353 377 275.723 377 256 C 377 254.691 376.971 253.382 376.928 252.073 Z " opacity="0"/>
    </g>
  </g><g id="ID0.9601388401351869" class="" opacity="0">
    <g id="ID0.27071271697059274" opacity="0">
      <path id="ID0.9346525580622256" fill="#FF0000" d="M 256 186.526 C 217.692 186.526 186.527 217.691 186.527 255.999 C 186.527 294.307 217.693 325.473 256 325.473 C 294.307 325.473 325.473 294.307 325.473 255.999 C 325.473 217.691 294.308 186.526 256 186.526 Z M 256 305.473 C 228.720 305.473 206.527 283.280 206.527 255.999 C 206.527 228.720 228.720 206.526 256 206.526 C 283.280 206.526 305.473 228.719 305.473 255.999 C 305.474 283.279 283.280 305.473 256 305.473 Z " opacity="0"/>
    </g>
  </g><g id="ID0.28825060557574034" class="" opacity="0">
    <g id="ID0.3399060033261776" opacity="0">
      <path id="ID0.5093589862808585" fill="#FF0000" d="M 256 245.999 C 250.492 245.999 246 250.491 246 255.999 C 246 261.507 250.492 265.999 256 265.999 C 261.508 265.999 266 261.507 266 255.999 C 266 250.492 261.508 245.999 256 245.999 Z " opacity="0"/>
    </g>
  </g><g id="ID0.38320585899055004" class="" opacity="0">
    <g id="ID0.3724308698438108" opacity="0">
      <path id="ID0.369713731110096" fill="#FF0000" d="M 168.797 74.624 C 166.159 69.770 160.086 67.976 155.235 70.613 C 87.240 107.573 45 178.609 45 256 C 45 293.714 55.136 330.813 74.312 363.286 C 76.178 366.445 79.510 368.203 82.932 368.203 C 84.661 368.203 86.411 367.754 88.008 366.811 C 92.763 364.003 94.342 357.872 91.534 353.116 C 74.175 323.721 65 290.139 65 256 C 65 185.944 103.236 121.643 164.787 88.186 C 169.639 85.548 171.434 79.477 168.797 74.624 Z " opacity="0"/>
    </g>
  </g><g id="ID0.4822796159423888" class="" opacity="1">
    <g id="ID0.9737265673466027" opacity="1">
      <path id="ID0.4756227722391486" fill="#FF0000" d="M 154.964 136.719 C 151.132 132.740 144.800 132.624 140.824 136.456 C 108.524 167.577 89.999 211.148 89.999 256 C 89.999 285.670 97.973 314.856 113.060 340.405 C 114.926 343.564 118.258 345.322 121.680 345.322 C 123.409 345.322 125.159 344.873 126.755 343.931 C 131.511 341.123 133.090 334.991 130.282 330.235 C 117.014 307.765 110 282.094 110 256 C 110 216.553 126.293 178.230 154.701 150.859 C 158.678 147.027 158.796 140.697 154.964 136.719 Z " opacity="1"/>
    </g>
  </g><g id="ID0.7343899412080646" class="selected" opacity="0">
    <g id="ID0.4893130990676582" opacity="0">
      <path id="ID0.4722769455984235" fill="#FF0000" d="M 181.028 173.535 C 176.962 169.797 170.636 170.064 166.899 174.133 C 146.328 196.521 134.999 225.595 134.999 256 C 134.999 277.626 140.812 298.901 151.808 317.524 C 153.674 320.683 157.007 322.441 160.428 322.441 C 162.156 322.441 163.907 321.993 165.503 321.050 C 170.259 318.241 171.838 312.109 169.029 307.354 C 159.850 291.809 154.998 274.051 154.998 256.000 C 154.998 230.621 164.455 206.352 181.626 187.664 C 185.362 183.598 185.095 177.271 181.028 173.535 Z " opacity="0"/>
    </g>
  </g><g id="ID0.6159672671929002" class="" opacity="0">
    <g id="ID0.08902323711663485" opacity="0">
      <path id="ID0.8364037969149649" fill="#FF0000" d="M 431.022 138.150 C 427.937 133.568 421.724 132.356 417.142 135.440 C 412.561 138.525 411.348 144.739 414.432 149.320 C 435.738 180.963 447 217.852 447 256 C 447 325.452 409.251 389.487 348.484 423.115 C 343.652 425.790 341.902 431.875 344.577 436.707 C 346.402 440.005 349.815 441.867 353.336 441.867 C 354.973 441.867 356.634 441.464 358.169 440.615 C 425.298 403.465 467 332.725 467 256 C 467 213.857 454.559 173.105 431.022 138.150 Z " opacity="0"/>
    </g>
  </g><g id="ID0.7729041338898242" class="" opacity="1">
    <g id="ID0.7321585575118661" opacity="1">
      <path id="ID0.5588820455595851" fill="#FF0000" d="M 147.735 353.954 L 147.611 353.815 C 143.944 349.686 137.623 349.310 133.494 352.978 C 129.365 356.646 128.990 362.966 132.657 367.096 L 132.881 367.346 C 134.856 369.535 137.578 370.650 140.312 370.650 C 142.698 370.650 145.093 369.801 147.004 368.078 C 151.106 364.380 151.434 358.057 147.735 353.954 Z " opacity="1"/>
    </g>
  </g></g></svg>