<svg version="1.1" xmlns="http://www.w3.org/2000/svg" xmlns:xlink="http://www.w3.org/1999/xlink" width="514" height="514"><g transform="translate(17.5,77.5)"><g data-paper-data="{&quot;isPaintingLayer&quot;:true}" fill="none" fill-rule="nonzero" stroke="none" stroke-width="1" stroke-linecap="butt" stroke-linejoin="miter" stroke-miterlimit="10" stroke-dasharray="" stroke-dashoffset="0" font-family="none" font-weight="none" font-size="none" text-anchor="none" style="mix-blend-mode: normal"><path d="M-17.5,436.5v-514h514v514z" id="backgroundrect" fill="none"/><g><path d="M238.5258,-61.47811c66.21456,0 126.21456,26.89327 169.66009,70.33991c43.44664,43.44553 70.33991,103.44553 70.33991,169.66009c0,66.21456 -26.89327,126.21456 -70.33991,169.66009c-43.44553,43.44664 -103.44553,70.33991 -169.66009,70.33991c-66.21456,0 -126.21456,-26.89327 -169.66009,-70.33991c-43.44664,-43.44553 -70.33991,-103.44553 -70.33991,-169.66009c0,-66.21456 26.89327,-126.21456 70.33991,-169.66009c43.44553,-43.44664 103.44553,-70.33991 169.66009,-70.33991z" id="ID0.5110253398306668" fill="#ffffff" opacity="0"/><g id="ID0.6499583958648145" fill="#000000" opacity="0"><g id="ID0.22794769098982215"><path d="M494.5,178.499c0,141.159 -114.841,256.001 -256,256.001c-141.159,0 -256,-114.842 -256,-256.001c0,-141.158 114.841,-255.999 256,-255.999c141.159,0 256,114.841 256,255.999zM474.5,178.499c0,-130.13 -105.87,-235.999 -236,-235.999c-130.13,0 -236,105.869 -236,235.999c0,130.132 105.87,236.001 236,236.001c130.131,0 236,-105.869 236,-236.001z" id="ID0.1612658859230578"/></g></g><g id="ID0.05029568215832114" fill="#ff0000" opacity="0"><g id="ID0.5596473133191466"><path d="M404.5,178.5c0,47.487 -20.388,92.78 -55.937,124.267c-1.903,1.686 -4.269,2.514 -6.626,2.514c-2.764,0 -5.514,-1.139 -7.49,-3.369c-3.663,-4.135 -3.279,-10.455 0.855,-14.117c31.266,-27.692 49.198,-67.529 49.198,-109.295c0,-28.933 -8.486,-56.947 -24.542,-81.018c-3.065,-4.595 -1.824,-10.804 2.77,-13.868c4.597,-3.065 10.805,-1.824 13.869,2.771c18.255,27.366 27.903,59.22 27.903,92.115z" id="ID0.9795328946784139"/></g></g><g id="ID0.9531189389526844" fill="none"><g id="ID0.2253865860402584"><path d="M359.5,178.5c0,19.723 -4.891,39.353 -14.143,56.77c-1.797,3.382 -5.26,5.311 -8.84,5.311c-1.582,0 -3.187,-0.376 -4.683,-1.171c-4.877,-2.591 -6.73,-8.646 -4.139,-13.523c7.723,-14.538 11.806,-30.925 11.806,-47.387c0,-1.095 -0.025,-2.188 -0.06,-3.279c-0.015,-0.44 -0.036,-0.881 -0.056,-1.321c-0.027,-0.599 -0.061,-1.197 -0.099,-1.794c-0.039,-0.602 -0.077,-1.205 -0.127,-1.807c-0.017,-0.219 -0.041,-0.437 -0.06,-0.655c-0.887,-9.954 -3.252,-19.805 -6.992,-29.063c-0.039,-0.097 -0.079,-0.193 -0.118,-0.29c-0.317,-0.775 -0.642,-1.547 -0.977,-2.314c-0.09,-0.207 -0.186,-0.412 -0.278,-0.618c-0.3,-0.673 -0.601,-1.345 -0.916,-2.011c-0.014,-0.03 -0.023,-0.06 -0.037,-0.088c-2.095,-4.413 -4.515,-8.693 -7.258,-12.805c-3.065,-4.593 -1.824,-10.802 2.77,-13.868c4.595,-3.065 10.804,-1.825 13.868,2.77c3.775,5.659 7.027,11.59 9.775,17.719c0.135,0.301 0.275,0.6 0.407,0.903c0.394,0.897 0.771,1.8 1.142,2.705c0.058,0.141 0.116,0.283 0.173,0.425c4.494,11.088 7.315,22.789 8.362,34.783c0.023,0.26 0.051,0.52 0.072,0.781c0.058,0.721 0.106,1.443 0.151,2.165c0.046,0.716 0.085,1.433 0.118,2.15c0.024,0.528 0.05,1.056 0.067,1.585c0.043,1.309 0.072,2.618 0.072,3.927z" id="ID0.7975027202628553"/></g></g><g id="ID0.9601388401351869" fill="#ff0000"><g id="ID0.27071271697059274"><path d="M307.973,178.499c0,38.308 -31.166,69.474 -69.473,69.474c-38.307,0 -69.473,-31.166 -69.473,-69.474c0,-38.308 31.165,-69.473 69.473,-69.473c38.308,0 69.473,31.165 69.473,69.473zM287.973,178.499c0,-27.28 -22.193,-49.473 -49.473,-49.473c-27.28,0 -49.473,22.194 -49.473,49.473c0,27.281 22.193,49.474 49.473,49.474c27.28,0 49.474,-22.194 49.473,-49.474z" id="ID0.9346525580622256"/></g></g><g id="ID0.28825060557574034" fill="#ff0000"><g id="ID0.3399060033261776"><path d="M248.5,178.499c0,5.508 -4.492,10 -10,10c-5.508,0 -10,-4.492 -10,-10c0,-5.508 4.492,-10 10,-10c5.508,0 10,4.493 10,10z" id="ID0.5093589862808585"/></g></g><g id="ID0.38320585899055004" fill="#ff0000" opacity="0"><g id="ID0.3724308698438108"><path d="M147.287,10.686c-61.551,33.457 -99.787,97.758 -99.787,167.814c0,34.139 9.175,67.721 26.534,97.116c2.808,4.756 1.229,10.887 -3.526,13.695c-1.597,0.943 -3.347,1.392 -5.076,1.392c-3.422,0 -6.754,-1.758 -8.62,-4.917c-19.176,-32.473 -29.312,-69.572 -29.312,-107.286c0,-77.391 42.24,-148.427 110.235,-185.387c4.851,-2.637 10.924,-0.843 13.562,4.011c2.637,4.853 0.842,10.924 -4.01,13.562z" id="ID0.369713731110096"/></g></g><g id="ID0.4822796159423888" fill="#ff0000" opacity="0"><g id="ID0.9737265673466027"><path d="M137.201,73.359c-28.408,27.371 -44.701,65.694 -44.701,105.141c0,26.094 7.014,51.765 20.282,74.235c2.808,4.756 1.229,10.888 -3.527,13.696c-1.596,0.942 -3.346,1.391 -5.075,1.391c-3.422,0 -6.754,-1.758 -8.62,-4.917c-15.087,-25.549 -23.061,-54.735 -23.061,-84.405c0,-44.852 18.525,-88.423 50.825,-119.544c3.976,-3.832 10.308,-3.716 14.14,0.263c3.832,3.978 3.714,10.308 -0.263,14.14z" id="ID0.4756227722391486"/></g></g><g id="ID0.7343899412080646" fill="none"><g id="ID0.4893130990676582"><path d="M164.126,110.164c-17.171,18.688 -26.628,42.957 -26.628,68.336c0,18.051 4.852,35.809 14.031,51.354c2.809,4.755 1.23,10.887 -3.526,13.696c-1.596,0.943 -3.347,1.391 -5.075,1.391c-3.421,0 -6.754,-1.758 -8.62,-4.917c-10.996,-18.623 -16.809,-39.898 -16.809,-61.524c0,-30.405 11.329,-59.479 31.9,-81.867c3.737,-4.069 10.063,-4.336 14.129,-0.598c4.067,3.736 4.334,10.063 0.598,14.129z" id="ID0.4722769455984235"/></g></g><g id="ID0.6159672671929002" fill="#ff0000" opacity="0"><g id="ID0.08902323711663485"><path d="M449.5,178.5c0,76.725 -41.702,147.465 -108.831,184.615c-1.535,0.849 -3.196,1.252 -4.833,1.252c-3.521,0 -6.934,-1.862 -8.759,-5.16c-2.675,-4.832 -0.925,-10.917 3.907,-13.592c60.767,-33.628 98.516,-97.663 98.516,-167.115c0,-38.148 -11.262,-75.037 -32.568,-106.68c-3.084,-4.581 -1.871,-10.795 2.71,-13.88c4.582,-3.084 10.795,-1.872 13.88,2.71c23.537,34.955 35.978,75.707 35.978,117.85z" id="ID0.8364037969149649"/></g></g><g id="ID0.7729041338898242" fill="#ff0000" opacity="0"><g id="ID0.7321585575118661"><path d="M129.504,290.578c-1.911,1.723 -4.306,2.572 -6.692,2.572c-2.734,0 -5.456,-1.115 -7.431,-3.304l-0.224,-0.25c-3.667,-4.13 -3.292,-10.45 0.837,-14.118c4.129,-3.668 10.45,-3.292 14.117,0.837l0.124,0.139c3.699,4.103 3.371,10.426 -0.731,14.124z" id="ID0.5588820455595851"/></g></g></g></g></g></svg>