<svg version="1.1" xmlns="http://www.w3.org/2000/svg" xmlns:xlink="http://www.w3.org/1999/xlink" width="275.07708" height="314.37381"><g transform="translate(-101.43186,-70.52768)"><g data-paper-data="{&quot;isPaintingLayer&quot;:true}" fill="none" fill-rule="nonzero" stroke="none" stroke-width="none" stroke-linecap="butt" stroke-linejoin="miter" stroke-miterlimit="10" stroke-dasharray="" stroke-dashoffset="0" font-family="none" font-weight="none" font-size="none" text-anchor="none" style="mix-blend-mode: normal"><g data-paper-data="{&quot;origPos&quot;:null}"><path d="M376.50894,102.90819v281.99331l-33.79518,-29.86551l-19.01962,-17.60493l-20.11992,-18.70524l8.33091,29.07958h-178.24995c-17.76212,0 -32.22332,-14.4612 -32.22332,-32.3805v-212.51669c0,-17.91931 14.4612,-32.3805 32.22332,-32.3805h210.63045c17.76212,0 32.22332,14.4612 32.22332,32.3805zM331.71067,251.92137c0,-50.61418 -22.63491,-91.63997 -22.63491,-91.63997c-22.63491,-16.97619 -44.16952,-16.50462 -44.16952,-16.50462l-2.20062,2.51499c26.72177,8.17372 39.13954,19.96274 39.13954,19.96274c-16.34744,-8.95965 -32.3805,-13.36089 -47.31326,-15.08994c-11.31746,-1.2575 -22.16335,-0.94312 -31.75175,0.31437c-0.94312,0 -1.72906,0.15719 -2.67218,0.31437c-5.50154,0.47156 -18.86243,2.51499 -35.68143,9.90277c-5.81592,2.67218 -9.27403,4.55842 -9.27403,4.55842c0,0 13.04651,-12.41777 41.34016,-20.59148l-1.57187,-1.88624c0,0 -21.53461,-0.47156 -44.16952,16.50462c0,0 -22.63491,41.02578 -22.63491,91.63997c0,0 13.2037,22.7921 47.94201,23.89241c0,0 5.81592,-7.07341 10.53152,-13.04651c-19.96274,-5.9731 -27.50771,-18.54805 -27.50771,-18.54805c0,0 1.57187,1.10031 4.40123,2.67218c0.15719,0.15719 0.31437,0.31437 0.62875,0.47156c0.47156,0.31437 0.94312,0.47156 1.41468,0.78593c3.92967,2.20062 7.85935,3.92967 11.47464,5.34435c6.44466,2.51499 14.14682,5.02998 23.10647,6.75904c11.78902,2.20062 25.62147,2.98655 40.71141,0.15719c7.38778,-1.2575 14.93276,-3.45811 22.7921,-6.75904c5.50154,-2.04343 11.63183,-5.02998 18.07649,-9.27403c0,0 -7.85935,12.88933 -28.45083,18.70524c4.71561,5.9731 10.37434,12.73214 10.37434,12.73214c34.73831,-1.10031 48.09919,-23.89241 48.09919,-23.89241z" data-paper-data="{&quot;origPos&quot;:null}" fill="none" stroke-width="1"/><path d="M283.65486,275.87932c0,0 -5.74377,-6.89122 -10.45938,-12.86432c20.59148,-5.81592 28.42392,-18.677 28.42392,-18.677c-6.44466,4.24405 -12.4509,7.32467 -17.95244,9.3681c-7.85935,3.30092 -15.42978,5.51851 -22.81757,6.77601c-15.08994,2.82936 -28.98112,2.04395 -40.77013,-0.15667c-8.95965,-1.72906 -16.68816,-4.26113 -23.13283,-6.77612c-3.6153,-1.41468 -7.55413,-3.15452 -11.4838,-5.35514c-0.47156,-0.31437 -0.94409,-0.47296 -1.41565,-0.78733c-0.31437,-0.15719 -0.47204,-0.3151 -0.62923,-0.47228c-2.82936,-1.57187 -4.26716,-2.75406 -4.26716,-2.75406c0,0 7.51842,12.54714 27.48116,18.52024c-4.71561,5.9731 -10.61686,13.1785 -10.61686,13.1785c-34.73831,-1.10031 -47.96995,-23.9251 -47.96995,-23.9251c0,-50.61418 22.64244,-91.7185 22.64244,-91.7185c22.63491,-16.97619 44.20559,-16.53238 44.20559,-16.53238l1.62666,2.03357c-28.29364,8.17372 -41.30189,20.56151 -41.30189,20.56151c0,0 3.3335,-1.98157 9.14942,-4.65375c16.819,-7.38778 30.21387,-9.45411 35.71541,-9.92567c0.94312,-0.15719 1.7323,-0.3154 2.67542,-0.3154c9.5884,-1.2575 20.47546,-1.57273 31.79292,-0.31523c14.93276,1.72906 31.01111,6.16135 47.35854,15.121c0,0 -12.50861,-11.66985 -39.23039,-19.84357l2.255,-2.66246c0,0 21.57068,-0.44381 44.20559,16.53238c0,0 22.64244,41.10431 22.64244,91.7185c0,0 -13.38894,22.82486 -48.12725,23.92517z" data-paper-data="{&quot;noHover&quot;:false,&quot;origItem&quot;:[&quot;Path&quot;,{&quot;applyMatrix&quot;:false,&quot;segments&quot;:[[[598.82368,362.79489],[0,0],[0,-64.4]],[[570.02368,246.19489],[0,0],[-28.8,-21.6]],[513.82368,225.19489],[[511.02368,228.39489],[0,0],[34,10.4]],[[560.82368,253.79489],[0,0],[-20.8,-11.4]],[[500.62368,234.59489],[19,2.2],[-14.4,-1.6]],[[460.22368,234.99489],[12.2,-1.6],[-1.2,0]],[[456.82368,235.39489],[1.2,-0.2],[-7,0.6]],[[411.42368,247.99489],[21.4,-9.4],[-7.4,3.4]],[399.62368,253.79489],[[452.22368,227.59489],[-36,10.4],[0,0]],[450.22368,225.19489],[[394.02368,246.19489],[28.8,-21.6],[0,0]],[[365.22368,362.79489],[0,-64.4],[0,0]],[[426.22368,393.19489],[-44.2,-1.4],[0,0]],[[439.62368,376.59489],[-6,7.6],[-25.4,-7.6]],[404.62368,352.99489],[[410.22368,356.39489],[-3.6,-2],[0.2,0.2]],[[411.02368,356.99489],[-0.4,-0.2],[0.6,0.4]],[[412.82368,357.99489],[-0.6,-0.4],[5,2.8]],[[427.42368,364.79489],[-4.6,-1.8],[8.2,3.2]],[[456.82368,373.39489],[-11.4,-2.2],[15,2.8]],[[508.62368,373.59489],[-19.2,3.6],[9.4,-1.6]],[[537.62368,364.99489],[-10,4.2],[7,-2.6]],[[560.62368,353.19489],[-8.2,5.4],[0,0]],[[524.42368,376.99489],[26.2,-7.4],[6,7.6]],[[537.62368,393.19489],[0,0],[44.2,-1.4]]],&quot;closed&quot;:true,&quot;fillColor&quot;:[0,0,0,1]}],&quot;origPos&quot;:null}" fill="#ffffff" stroke-width="0.5"/><path d="M226.55264,219.85524c0,9.5884 -7.07341,17.44775 -16.03306,17.44775c-8.80247,0 -16.03306,-7.85935 -16.03306,-17.44775c0,-9.5884 7.07341,-17.44775 16.03306,-17.44775c8.95965,0 16.19025,7.85935 16.03306,17.44775zM283.92586,219.85524c0,9.5884 -7.07341,17.44775 -16.03306,17.44775c-8.80247,0 -16.03306,-7.85935 -16.03306,-17.44775c0,-9.5884 7.07341,-17.44775 16.03306,-17.44775c8.95965,0 16.03306,7.85935 16.03306,17.44775z" data-paper-data="{&quot;origPos&quot;:null}" fill="#000000" stroke-width="1"/></g></g></g></svg>