<svg version="1.1" xmlns="http://www.w3.org/2000/svg" xmlns:xlink="http://www.w3.org/1999/xlink" width="364" height="364"><g transform="translate(-58,2)"><g data-paper-data="{&quot;isPaintingLayer&quot;:true}" fill="none" fill-rule="none" stroke="none" stroke-width="none" stroke-linecap="butt" stroke-linejoin="miter" stroke-miterlimit="10" stroke-dasharray="" stroke-dashoffset="0" font-family="none" font-weight="none" font-size="none" text-anchor="none" style="mix-blend-mode: normal"><path d="M89,338v-312h311v312z" data-paper-data="{&quot;origPos&quot;:null}" fill="#ffffff" fill-rule="nonzero" stroke="#000000" stroke-width="2"/><g fill="#000000" fill-rule="evenodd" stroke="none" stroke-width="1"><path d="M338.566,117.577v124.846c0,19.929 -16.214,36.143 -36.142,36.143h-124.847c-19.925,0 -36.139,-16.214 -36.139,-36.143v-124.846c0,-19.926 16.214,-36.139 36.139,-36.139h124.847c19.928,0 36.142,16.214 36.142,36.139zM304.894,179.998c0,-35.779 -29.113,-64.892 -64.896,-64.892c-35.779,0 -64.892,29.113 -64.892,64.892c0,35.783 29.113,64.896 64.892,64.896c35.783,0 64.896,-29.113 64.896,-64.896zM322.336,113.171c0,-8.467 -6.888,-15.355 -15.354,-15.355c-8.471,0 -15.359,6.888 -15.359,15.355c0,8.466 6.888,15.354 15.359,15.354c8.466,0 15.354,-6.887 15.354,-15.354z"/><path d="M277.469,179.998c0,20.663 -16.808,37.479 -37.471,37.479c-20.655,0 -37.475,-16.816 -37.475,-37.479c0,-20.655 16.82,-37.467 37.475,-37.467c20.663,0 37.471,16.812 37.471,37.467z"/><path d="M422,-2v364h-364v-364zM365.984,117.577c0,-35.049 -28.508,-63.561 -63.56,-63.561h-124.847c-35.049,0 -63.561,28.512 -63.561,63.561v124.846c0,35.053 28.512,63.561 63.561,63.561h124.847c35.052,0 63.56,-28.508 63.56,-63.561z"/></g><g fill="#000000" fill-rule="nonzero" stroke="none" stroke-width="1" font-family="&quot;Helvetica Neue&quot;, Helvetica, Arial, sans-serif" font-weight="400" font-size="16" text-anchor="start"/><g fill="#000000" fill-rule="nonzero" stroke="none" stroke-width="1" font-family="&quot;Helvetica Neue&quot;, Helvetica, Arial, sans-serif" font-weight="400" font-size="16" text-anchor="start"/><g fill="#000000" fill-rule="nonzero" stroke="none" stroke-width="1" font-family="&quot;Helvetica Neue&quot;, Helvetica, Arial, sans-serif" font-weight="400" font-size="16" text-anchor="start"/><g fill="#000000" fill-rule="nonzero" stroke="none" stroke-width="1" font-family="&quot;Helvetica Neue&quot;, Helvetica, Arial, sans-serif" font-weight="400" font-size="16" text-anchor="start"/><g fill="#000000" fill-rule="nonzero" stroke="none" stroke-width="1" font-family="&quot;Helvetica Neue&quot;, Helvetica, Arial, sans-serif" font-weight="400" font-size="16" text-anchor="start"/><g fill="#000000" fill-rule="nonzero" stroke="none" stroke-width="1" font-family="&quot;Helvetica Neue&quot;, Helvetica, Arial, sans-serif" font-weight="400" font-size="16" text-anchor="start"/><g fill="#000000" fill-rule="nonzero" stroke="none" stroke-width="1" font-family="&quot;Helvetica Neue&quot;, Helvetica, Arial, sans-serif" font-weight="400" font-size="16" text-anchor="start"/></g></g></svg>